<?xml version="1.0" standalone="no"?>
<!DOCTYPE svg PUBLIC "-//W3C//DTD SVG 20010904//EN"
 "http://www.w3.org/TR/2001/REC-SVG-20010904/DTD/svg10.dtd">
<svg version="1.0" xmlns="http://www.w3.org/2000/svg"
 width="288.000000pt" height="288.000000pt" viewBox="0 0 288.000000 288.000000"
 preserveAspectRatio="xMidYMid meet">
<metadata>
Created by potrace 1.14, written by Peter Selinger 2001-2017
</metadata>
<g transform="translate(0.000000,288.000000) scale(0.100000,-0.100000)"
fill="#000000" stroke="none">
<path d="M0 1440 l0 -1440 1440 0 1440 0 0 690 0 690 -277 0 -278 0 51 -29
c219 -126 231 -474 21 -618 -95 -65 -111 -67 -529 -71 l-378 -3 0 355 0 355
-22 4 -23 4 23 2 22 1 0 356 0 355 358 -3 c398 -4 403 -5 497 -76 38 -28 59
-56 89 -114 36 -70 39 -85 44 -175 7 -143 -11 -199 -89 -275 l-60 -58 276 0
275 0 0 745 0 745 -1440 0 -1440 0 0 -1440z m935 715 c281 -74 461 -390 415
-731 -16 -122 -35 -186 -83 -277 -68 -133 -192 -239 -324 -277 -49 -15 -47
-23 15 -92 90 -99 241 -117 353 -42 28 19 52 34 54 34 2 0 17 -23 34 -51 l32
-50 -23 -20 c-41 -34 -122 -69 -187 -80 -156 -28 -331 65 -420 222 l-31 55
-71 12 c-199 34 -366 193 -428 407 -62 213 -45 432 47 610 44 86 155 201 230
239 107 54 269 71 387 41z"/>
<path d="M673 2006 c-145 -47 -249 -170 -289 -343 -22 -95 -14 -295 14 -376
44 -123 124 -215 230 -265 51 -24 69 -27 167 -27 104 0 114 2 176 32 128 63
220 196 239 346 39 301 -44 514 -239 610 -58 28 -76 32 -161 34 -59 2 -111 -3
-137 -11z"/>
<path d="M1640 1695 l0 -235 224 0 c251 0 314 8 370 48 119 83 118 277 -2 369
-59 45 -115 53 -367 53 l-225 0 0 -235z"/>
<path d="M1640 1054 l0 -235 293 3 292 3 54 30 c68 38 100 85 108 159 8 81
-11 140 -66 197 -71 73 -103 79 -418 79 l-263 0 0 -236z"/>
</g>
</svg>
